<svg width="46" height="41" viewBox="0 0 46 41" fill="none" xmlns="http://www.w3.org/2000/svg">
<g clip-path="url(#clip0_1259_405)">
<path d="M34.512 4.25394L35.17 4.58423L35.2313 4.61496L35.7363 4.86844L36.1495 5.698L36.356 6.11278C36.379 6.16655 36.4555 6.21263 36.5091 6.21263C36.5626 6.21263 36.6392 6.16655 36.6621 6.11278L37.2819 4.87612L38.5138 4.25394C38.5674 4.22322 38.6133 4.15409 38.6133 4.09264C38.6133 4.03119 38.5674 3.96206 38.5138 3.93902L37.2819 3.31685L36.6621 2.08019C36.6009 1.96497 36.4096 1.96497 36.3484 2.08019L35.9505 2.87134L35.7286 3.31685L35.5832 3.38598L34.4967 3.93134C34.4967 3.93134 34.4278 3.98511 34.4125 4.03119C34.4049 4.05424 34.3972 4.0696 34.3972 4.09264C34.3972 4.15409 34.4431 4.22322 34.4967 4.25394H34.512Z" fill="#265BF2"/>
<path d="M8.02978 37.0293L6.9662 36.4916L6.43824 35.424C6.38468 35.3241 6.21635 35.3241 6.17044 35.424L5.82611 36.1076L5.63482 36.4916L5.5124 36.5531L4.5789 37.0216C4.5789 37.0216 4.51769 37.0677 4.51004 37.1061C4.50239 37.1215 4.49473 37.1445 4.49473 37.1599C4.49473 37.2137 4.53299 37.2751 4.5789 37.2982L5.15277 37.5824L5.20633 37.6131L5.64248 37.8358L5.99445 38.5502L6.17044 38.9035C6.19339 38.9496 6.2546 38.988 6.30817 38.988C6.36173 38.988 6.42294 38.9496 6.44589 38.9035L6.97386 37.8358L8.03743 37.3058C8.08334 37.2828 8.1216 37.2214 8.1216 37.1676C8.1216 37.1138 8.08334 37.0524 8.03743 37.0293H8.02978Z" fill="#265BF2"/>
<path d="M33.4255 19.3166C35.5526 18.103 37.4808 16.9048 39.1412 15.7526C39.1489 15.7526 39.1642 15.7449 39.1795 15.7296C43.8317 12.5342 46.4562 9.79972 45.8134 8.43248C45.1171 6.95002 40.7251 7.42625 34.5426 9.36958C34.5044 9.37726 34.4737 9.39262 34.4355 9.4003C33.0582 8.25581 31.4896 7.34176 29.7833 6.69654C27.9546 5.99756 25.9652 5.62119 23.8992 5.62119C15.2988 5.62119 8.22107 12.1809 7.36409 20.5917C7.31053 21.1524 7.27992 21.7208 7.27992 22.2969V22.4045C7.18045 22.4736 7.08098 22.535 6.98151 22.6042C2.1763 25.8763 -0.55533 28.6876 0.0950571 30.0779C0.691883 31.3607 4.02033 31.184 8.87146 29.8782C8.93267 29.8628 9.00153 29.8398 9.06275 29.8244C12.8732 28.7798 17.579 27.0515 22.6214 24.7933C22.6214 24.8471 22.6214 24.8931 22.6291 24.9469C22.652 25.1927 22.7132 25.4462 22.7744 25.6843C22.7285 25.7765 22.6979 25.8533 22.6597 25.9455L15.3677 29.5786L15.2682 29.6324C15.1611 29.6785 15.054 29.7323 14.9545 29.786C14.8015 29.8705 14.7402 30.0241 14.7938 30.1701C14.8397 30.2699 14.9392 30.3698 15.0387 30.4005C15.0616 30.4082 15.0846 30.4159 15.1075 30.4159C15.184 30.4159 15.2682 30.3775 15.3371 30.3467C17.1964 29.425 19.0557 28.4956 20.9151 27.5739L23.7385 26.1682L24.0293 26.0223C24.0293 26.0223 24.0752 25.9992 24.0905 25.9839C24.519 25.7304 24.695 25.185 24.4884 24.7242L24.3583 24.4246C24.3124 24.3171 24.2665 24.1942 24.2206 24.0789C23.991 23.4491 23.8457 22.873 23.7768 22.3276C23.7538 22.1433 23.8151 21.9974 23.9604 21.8898C24.8174 21.2523 25.7739 21.0372 26.8068 21.2369C26.8221 21.2369 26.8451 21.2369 26.868 21.2369H26.9293L27.4802 21.429C27.549 21.4674 27.6103 21.4981 27.6562 21.5288C27.7862 21.5903 27.901 21.6594 28.0234 21.7439C28.1535 21.8361 28.2836 21.9359 28.3984 22.0434C28.9952 22.5811 29.3778 23.2878 29.5079 24.0482C29.615 24.6627 29.5461 25.3079 29.3013 25.9224C28.8728 26.9824 28.0847 27.6737 26.9522 27.9963C26.7915 28.0424 26.6615 27.9963 26.539 27.8888C26.1947 27.5508 25.8886 27.1668 25.5749 26.7136C25.5137 26.6214 25.3913 26.5984 25.2995 26.6521C25.2 26.7136 25.1694 26.8441 25.2383 26.9363C25.4372 27.2359 25.6438 27.497 25.8504 27.7428C25.8963 27.7966 25.9345 27.9041 25.8963 27.9886C25.858 28.0578 25.7662 28.0962 25.6897 28.0962H25.6667C25.4908 28.0731 25.3071 28.0347 25.1235 28.004L24.9169 27.9656C24.5649 27.8197 24.2588 27.6507 23.991 27.4356C20.3718 29.5786 16.8597 31.4989 13.5313 33.1811C12.7661 33.5651 12.6437 34.6098 13.3017 35.1551C14.7402 36.3534 16.3777 37.3135 18.1529 37.9741C18.2141 37.9971 18.2829 38.0202 18.3441 38.0356C20.2647 38.7269 22.3536 39.0725 24.5267 38.9957C33.1194 38.6808 40.1206 31.7217 40.5109 23.1034C40.6027 21.1985 40.3655 19.3627 39.8681 17.6498C39.8452 17.573 39.7993 17.5039 39.7381 17.4578C39.608 17.3503 39.409 17.3272 39.256 17.4424C37.7104 18.5716 36.0806 19.7161 34.3819 20.8682C33.9534 21.1601 33.3643 21.0219 33.1041 20.5687C32.8593 20.1385 33.0123 19.5932 33.4331 19.3474L33.4255 19.3166ZM41.2072 10.3451C41.5515 11.0748 40.4344 12.419 38.3149 14.032C37.5956 12.7262 36.708 11.5357 35.6904 10.468C38.7357 9.6461 40.8322 9.54624 41.2072 10.3451ZM3.65306 27.9041C3.11744 27.0899 4.5483 25.5384 7.36409 23.6104C7.49416 25.2311 7.84614 26.7904 8.40471 28.2421C5.81081 28.6569 4.0892 28.5724 3.65306 27.8965V27.9041ZM22.9428 22.5043C22.8969 22.5274 22.8509 22.5427 22.8127 22.5504H22.7974L15.3141 24.3939C15.2452 24.4092 15.184 24.4169 15.1305 24.4169C14.9621 24.4169 14.8703 24.3247 14.8015 24.1173L14.7861 24.0866L14.8627 23.8562L14.9086 23.8408C14.9086 23.8408 14.9621 23.8178 14.9851 23.8101C15.0463 23.7871 15.1075 23.7563 15.1687 23.741C17.4489 23.1726 19.7291 22.6118 22.0016 22.0511L22.652 21.8898C22.652 21.8898 22.7132 21.8745 22.7362 21.8668C22.9198 21.8361 23.0652 21.9129 23.1264 22.0742C23.18 22.2355 23.0958 22.4198 22.9351 22.4966L22.9428 22.5043ZM26.2253 28.9565C25.9652 29.1715 25.6897 29.3866 25.4295 29.6094L20.1652 33.8877C20.0964 33.9492 20.0045 34.0183 19.8745 34.0183C19.8439 34.0183 19.8056 34.0183 19.7673 33.9953C19.6526 33.9569 19.5761 33.8647 19.5531 33.7495C19.5301 33.6266 19.5761 33.5037 19.6832 33.4192C19.8286 33.2963 19.9739 33.1734 20.1193 33.0582L20.2953 32.9122L25.7203 28.511C25.7739 28.4649 25.8198 28.4341 25.8733 28.4034C26.034 28.3266 26.233 28.3804 26.3171 28.5186C26.4089 28.6646 26.3783 28.8336 26.233 28.9488L26.2253 28.9565Z" fill="#265BF2"/>
<path d="M26.5467 23.38C26.9216 23.5336 27.1818 23.7947 27.3195 24.1788C27.4037 24.4092 27.5873 24.5398 27.7862 24.5398C27.8398 24.5398 27.8934 24.5321 27.9469 24.5091C28.0693 24.463 28.1688 24.3785 28.2224 24.271C28.2836 24.1481 28.2836 24.0021 28.2224 23.8485C28.0311 23.3108 27.6868 22.896 27.2124 22.6272C27.1282 22.5811 27.0364 22.535 26.9369 22.4966C26.4243 22.3123 26.2483 22.6042 26.1947 22.7578C26.1717 22.8192 26.1335 22.9729 26.2177 23.1188C26.2636 23.2187 26.363 23.3108 26.5467 23.3876V23.38Z" fill="#265BF2"/>
</g>
<defs>
<clipPath id="clip0_1259_405">
<rect width="45.9094" height="37.0125" fill="white" transform="translate(0 1.99377)"/>
</clipPath>
</defs>
</svg>
